<svg id="Layer_1" data-name="Layer 1" xmlns="http://www.w3.org/2000/svg" viewBox="0 0 118.09 122.88"><defs><style>.cls-1{fill-rule:evenodd;}</style></defs><title>electric-vehicle-charging-station</title><path class="cls-1" d="M105.67,61.11c.31,4.25.94,8.53,1.58,12.78A139.75,139.75,0,0,1,109,89.32c.27,6.75-.53,12.3-2.76,16.22-2.48,4.38-6.51,6.72-12.45,6.51h0c-7.09-.13-11.45-4.11-13.42-11.46-1.27-4.73-1.46-11-.7-18.5.54-5.42,1.36-8.89,1-14.47-.45-6.33-1.57-11.32-3.4-15a11.51,11.51,0,0,0-6.27-6v59.93a8.18,8.18,0,0,1,2.3,1.64,8.41,8.41,0,0,1,2.47,6v6A2.74,2.74,0,0,1,73,122.88H2.74A2.74,2.74,0,0,1,0,120.14v-6a8.42,8.42,0,0,1,2.47-6A8.57,8.57,0,0,1,4,107V14.52A14.54,14.54,0,0,1,18.56,0H56.34A14.63,14.63,0,0,1,70.93,14.59V41c11.36,2.48,14.4,15.65,15.13,26.51.49,7.31-.15,7.2-.94,14.63-.77,7.13-.64,12.88.49,17.09,1.27,4.77,4,7.35,8.24,7.41h.05c3.66.12,6.09-1.22,7.52-3.75,1.69-3,2.28-7.55,2-13.31a139.76,139.76,0,0,0-1.68-14.85c-.66-4.44-1.33-8.91-1.64-13.57h-.92l-.09-5.88c-7-.68-9.64-5.39-9.64-12.16V40h-1a1.65,1.65,0,0,1-1.65-1.65V36.46a1.65,1.65,0,0,1,1.65-1.65h4.89V26.16a2.59,2.59,0,0,1,2.6-2.6h0a2.6,2.6,0,0,1,2.6,2.6v8.65h7.65V26.16a2.6,2.6,0,0,1,2.6-2.6h0a2.6,2.6,0,0,1,2.61,2.6v8.65h5a1.65,1.65,0,0,1,1.65,1.65v1.91A1.65,1.65,0,0,1,116.44,40h-1.29v3.45c0,6.68-2.26,10.66-8.75,11.7v5.94ZM42.21,71.28H49.1a1.81,1.81,0,0,1,1.81,1.81,1.85,1.85,0,0,1-.31,1l-16.41,28a1.8,1.8,0,0,1-3.31-1.3L33.3,83.62l-8.16.14A1.8,1.8,0,0,1,23.32,82a1.71,1.71,0,0,1,.25-.95l16.13-28A1.81,1.81,0,0,1,43,54.23l-.83,17.05ZM21.86,12.54H53.68a6,6,0,0,1,4.24,1.76c.07.08.15.15.22.24a6,6,0,0,1,1.56,4v20.3a6,6,0,0,1-6,6H21.86a6,6,0,0,1-4.23-1.76h0a6,6,0,0,1-1.76-4.24V18.53a6,6,0,0,1,1.76-4.24,2.41,2.41,0,0,1,.24-.21,6,6,0,0,1,4-1.54Zm46.58,98.95H7.26a3,3,0,0,0-.91.62,2.92,2.92,0,0,0-.86,2.07v3.24H70.24v-3.24a3,3,0,0,0-.86-2.07,3,3,0,0,0-.94-.63Z"/></svg>